<svg xmlns="http://www.w3.org/2000/svg" xmlns:xlink="http://www.w3.org/1999/xlink" width="200" zoomAndPan="magnify" viewBox="0 0 150 37.5" height="50" preserveAspectRatio="xMidYMid meet" version="1.0"><defs><g/><clipPath id="71a5e60001"><path d="M 13.65625 3.039062 L 44.589844 3.039062 L 44.589844 33.96875 L 13.65625 33.96875 Z M 13.65625 3.039062 " clip-rule="nonzero"/></clipPath><clipPath id="be806c40bb"><path d="M 29.125 3.039062 C 20.582031 3.039062 13.65625 9.960938 13.65625 18.503906 C 13.65625 27.042969 20.582031 33.96875 29.125 33.96875 C 37.664062 33.96875 44.589844 27.042969 44.589844 18.503906 C 44.589844 9.960938 37.664062 3.039062 29.125 3.039062 Z M 29.125 3.039062 " clip-rule="nonzero"/></clipPath><clipPath id="59f25176e6"><path d="M 16.019531 3.996094 L 42.226562 3.996094 L 42.226562 30.199219 L 16.019531 30.199219 Z M 16.019531 3.996094 " clip-rule="nonzero"/></clipPath><clipPath id="1746e8a3e0"><path d="M 29.125 3.996094 C 21.886719 3.996094 16.019531 9.859375 16.019531 17.097656 C 16.019531 24.332031 21.886719 30.199219 29.125 30.199219 C 36.359375 30.199219 42.226562 24.332031 42.226562 17.097656 C 42.226562 9.859375 36.359375 3.996094 29.125 3.996094 Z M 29.125 3.996094 " clip-rule="nonzero"/></clipPath><clipPath id="30f87ace0d"><path d="M 22.425781 7.785156 L 35.820312 7.785156 L 35.820312 26.414062 L 22.425781 26.414062 Z M 22.425781 7.785156 " clip-rule="nonzero"/></clipPath><clipPath id="75beb9e5b1"><path d="M 24.644531 7.785156 L 33.601562 7.785156 C 34.191406 7.785156 34.753906 8.015625 35.171875 8.433594 C 35.589844 8.851562 35.820312 9.414062 35.820312 10.003906 L 35.820312 24.191406 C 35.820312 24.78125 35.589844 25.34375 35.171875 25.761719 C 34.753906 26.175781 34.191406 26.410156 33.601562 26.410156 L 24.644531 26.410156 C 24.054688 26.410156 23.492188 26.175781 23.074219 25.761719 C 22.660156 25.34375 22.425781 24.78125 22.425781 24.191406 L 22.425781 10.003906 C 22.425781 9.414062 22.660156 8.851562 23.074219 8.433594 C 23.492188 8.015625 24.054688 7.785156 24.644531 7.785156 Z M 24.644531 7.785156 " clip-rule="nonzero"/></clipPath><clipPath id="b5c5216da5"><path d="M 22.425781 7.785156 L 35.746094 7.785156 L 35.746094 26.285156 L 22.425781 26.285156 Z M 22.425781 7.785156 " clip-rule="nonzero"/></clipPath><clipPath id="8a02f1cab3"><path d="M 24.644531 7.785156 L 33.597656 7.785156 C 34.183594 7.785156 34.75 8.015625 35.167969 8.433594 C 35.582031 8.851562 35.816406 9.414062 35.816406 10.003906 L 35.816406 24.183594 C 35.816406 24.773438 35.582031 25.335938 35.167969 25.753906 C 34.75 26.167969 34.183594 26.402344 33.597656 26.402344 L 24.644531 26.402344 C 24.054688 26.402344 23.492188 26.167969 23.074219 25.753906 C 22.660156 25.335938 22.425781 24.773438 22.425781 24.183594 L 22.425781 10.003906 C 22.425781 9.414062 22.660156 8.851562 23.074219 8.433594 C 23.492188 8.015625 24.054688 7.785156 24.644531 7.785156 Z M 24.644531 7.785156 " clip-rule="nonzero"/></clipPath><clipPath id="6768c098c2"><path d="M 26.96875 19.296875 L 31.277344 19.296875 L 31.277344 23.601562 L 26.96875 23.601562 Z M 26.96875 19.296875 " clip-rule="nonzero"/></clipPath><clipPath id="fe374b44ad"><path d="M 29.125 19.296875 C 27.933594 19.296875 26.96875 20.257812 26.96875 21.449219 C 26.96875 22.640625 27.933594 23.601562 29.125 23.601562 C 30.3125 23.601562 31.277344 22.640625 31.277344 21.449219 C 31.277344 20.257812 30.3125 19.296875 29.125 19.296875 Z M 29.125 19.296875 " clip-rule="nonzero"/></clipPath></defs><g clip-path="url(#71a5e60001)"><g clip-path="url(#be806c40bb)"><path fill="#ffffff" d="M 13.65625 3.039062 L 44.589844 3.039062 L 44.589844 33.96875 L 13.65625 33.96875 Z M 13.65625 3.039062 " fill-opacity="1" fill-rule="nonzero"/></g></g><g clip-path="url(#59f25176e6)"><g clip-path="url(#1746e8a3e0)"><path fill="#ffffff" d="M 16.019531 3.996094 L 42.226562 3.996094 L 42.226562 30.199219 L 16.019531 30.199219 Z M 16.019531 3.996094 " fill-opacity="1" fill-rule="nonzero"/></g></g><g clip-path="url(#30f87ace0d)"><g clip-path="url(#75beb9e5b1)"><path fill="#ffffff" d="M 22.425781 7.785156 L 35.820312 7.785156 L 35.820312 26.414062 L 22.425781 26.414062 Z M 22.425781 7.785156 " fill-opacity="1" fill-rule="nonzero"/></g></g><g clip-path="url(#b5c5216da5)"><g clip-path="url(#8a02f1cab3)"><path stroke-linecap="butt" transform="matrix(0.740132, 0, 0, 0.740132, 22.424463, 7.783568)" fill="none" stroke-linejoin="miter" d="M 2.999559 0.00214654 L 15.096226 0.00214654 C 15.887893 0.00214654 16.65317 0.313535 17.217893 0.878258 C 17.777337 1.44298 18.094004 2.20298 18.094004 2.999924 L 18.094004 22.158259 C 18.094004 22.955203 17.777337 23.715203 17.217893 24.279925 C 16.65317 24.83937 15.887893 25.156036 15.096226 25.156036 L 2.999559 25.156036 C 2.202614 25.156036 1.442614 24.83937 0.877892 24.279925 C 0.318447 23.715203 0.00178082 22.955203 0.00178082 22.158259 L 0.00178082 2.999924 C 0.00178082 2.20298 0.318447 1.44298 0.877892 0.878258 C 1.442614 0.313535 2.202614 0.00214654 2.999559 0.00214654 Z M 2.999559 0.00214654 " stroke="#000000" stroke-width="2" stroke-opacity="1" stroke-miterlimit="4"/></g></g><g clip-path="url(#6768c098c2)"><g clip-path="url(#fe374b44ad)"><path fill="#000000" d="M 26.96875 19.296875 L 31.277344 19.296875 L 31.277344 23.601562 L 26.96875 23.601562 Z M 26.96875 19.296875 " fill-opacity="1" fill-rule="nonzero"/></g></g><g fill="#ffffff" fill-opacity="1"><g transform="translate(51.370635, 31.832695)"><g><path d="M 1.5 0 L 1.5 -17.296875 L 8.421875 -17.296875 C 10.335938 -17.296875 11.773438 -16.878906 12.734375 -16.046875 C 13.691406 -15.210938 14.171875 -14.148438 14.171875 -12.859375 C 14.171875 -11.835938 13.875 -11.015625 13.28125 -10.390625 C 12.6875 -9.765625 11.941406 -9.347656 11.046875 -9.140625 L 11.046875 -8.984375 C 11.703125 -8.953125 12.316406 -8.765625 12.890625 -8.421875 C 13.472656 -8.078125 13.941406 -7.597656 14.296875 -6.984375 C 14.660156 -6.367188 14.84375 -5.632812 14.84375 -4.78125 C 14.84375 -3.863281 14.613281 -3.039062 14.15625 -2.3125 C 13.707031 -1.59375 13.039062 -1.023438 12.15625 -0.609375 C 11.269531 -0.203125 10.179688 0 8.890625 0 Z M 5.15625 -2.984375 L 8.140625 -2.984375 C 9.160156 -2.984375 9.90625 -3.179688 10.375 -3.578125 C 10.84375 -3.972656 11.078125 -4.492188 11.078125 -5.140625 C 11.078125 -5.859375 10.820312 -6.441406 10.3125 -6.890625 C 9.800781 -7.347656 9.101562 -7.578125 8.21875 -7.578125 L 5.15625 -7.578125 Z M 5.15625 -10.0625 L 7.875 -10.0625 C 8.625 -10.0625 9.242188 -10.253906 9.734375 -10.640625 C 10.234375 -11.035156 10.484375 -11.570312 10.484375 -12.25 C 10.484375 -12.875 10.257812 -13.378906 9.8125 -13.765625 C 9.375 -14.148438 8.75 -14.34375 7.9375 -14.34375 L 5.15625 -14.34375 Z M 5.15625 -10.0625 "/></g></g></g><g fill="#ffffff" fill-opacity="1"><g transform="translate(67.083683, 31.832695)"><g><path d="M 17.390625 -8.640625 C 17.390625 -6.753906 17.035156 -5.148438 16.328125 -3.828125 C 15.617188 -2.503906 14.648438 -1.492188 13.421875 -0.796875 C 12.203125 -0.109375 10.828125 0.234375 9.296875 0.234375 C 7.765625 0.234375 6.382812 -0.113281 5.15625 -0.8125 C 3.9375 -1.507812 2.972656 -2.519531 2.265625 -3.84375 C 1.554688 -5.164062 1.203125 -6.765625 1.203125 -8.640625 C 1.203125 -10.535156 1.554688 -12.144531 2.265625 -13.46875 C 2.972656 -14.789062 3.9375 -15.796875 5.15625 -16.484375 C 6.382812 -17.179688 7.765625 -17.53125 9.296875 -17.53125 C 10.828125 -17.53125 12.203125 -17.179688 13.421875 -16.484375 C 14.648438 -15.796875 15.617188 -14.789062 16.328125 -13.46875 C 17.035156 -12.144531 17.390625 -10.535156 17.390625 -8.640625 Z M 13.6875 -8.640625 C 13.6875 -10.484375 13.285156 -11.882812 12.484375 -12.84375 C 11.691406 -13.8125 10.628906 -14.296875 9.296875 -14.296875 C 7.972656 -14.296875 6.910156 -13.8125 6.109375 -12.84375 C 5.304688 -11.882812 4.90625 -10.484375 4.90625 -8.640625 C 4.90625 -6.816406 5.304688 -5.421875 6.109375 -4.453125 C 6.910156 -3.484375 7.972656 -3 9.296875 -3 C 10.628906 -3 11.691406 -3.484375 12.484375 -4.453125 C 13.285156 -5.421875 13.6875 -6.816406 13.6875 -8.640625 Z M 13.6875 -8.640625 "/></g></g></g><g fill="#ffffff" fill-opacity="1"><g transform="translate(85.675908, 31.832695)"><g><path d="M 5.15625 -17.296875 L 5.15625 0 L 1.5 0 L 1.5 -17.296875 Z M 5.15625 -17.296875 "/></g></g></g><g fill="#ffffff" fill-opacity="1"><g transform="translate(92.346144, 31.832695)"><g><path d="M 1.5 0 L 1.5 -17.296875 L 5.15625 -17.296875 L 5.15625 -3.015625 L 12.578125 -3.015625 L 12.578125 0 Z M 1.5 0 "/></g></g></g><g fill="#ffffff" fill-opacity="1"><g transform="translate(105.838598, 31.832695)"><g><path d="M 1.5 0 L 1.5 -17.296875 L 13.15625 -17.296875 L 13.15625 -14.28125 L 5.15625 -14.28125 L 5.15625 -10.15625 L 12.5625 -10.15625 L 12.5625 -7.140625 L 5.15625 -7.140625 L 5.15625 -3.015625 L 13.1875 -3.015625 L 13.1875 0 Z M 1.5 0 "/></g></g></g><g fill="#ffffff" fill-opacity="1"><g transform="translate(120.403357, 31.832695)"><g><path d="M 1.5 0 L 1.5 -17.296875 L 8.328125 -17.296875 C 10.296875 -17.296875 11.820312 -16.78125 12.90625 -15.75 C 13.988281 -14.726562 14.53125 -13.359375 14.53125 -11.640625 C 14.53125 -10.460938 14.265625 -9.453125 13.734375 -8.609375 C 13.210938 -7.773438 12.457031 -7.144531 11.46875 -6.71875 L 15.140625 0 L 11.109375 0 L 7.828125 -6.125 L 5.15625 -6.125 L 5.15625 0 Z M 5.15625 -9.0625 L 7.640625 -9.0625 C 9.722656 -9.0625 10.765625 -9.921875 10.765625 -11.640625 C 10.765625 -13.421875 9.71875 -14.3125 7.625 -14.3125 L 5.15625 -14.3125 Z M 5.15625 -9.0625 "/></g></g></g><g fill="#ffffff" fill-opacity="1"><g transform="translate(52.059903, 11.449077)"><g><path d="M 0.8125 0 L 0.8125 -9.34375 L 4.546875 -9.34375 C 5.578125 -9.34375 6.351562 -9.117188 6.875 -8.671875 C 7.394531 -8.222656 7.65625 -7.648438 7.65625 -6.953125 C 7.65625 -6.398438 7.492188 -5.953125 7.171875 -5.609375 C 6.859375 -5.273438 6.457031 -5.050781 5.96875 -4.9375 L 5.96875 -4.84375 C 6.320312 -4.832031 6.65625 -4.734375 6.96875 -4.546875 C 7.28125 -4.359375 7.53125 -4.097656 7.71875 -3.765625 C 7.914062 -3.441406 8.015625 -3.046875 8.015625 -2.578125 C 8.015625 -2.085938 7.890625 -1.644531 7.640625 -1.25 C 7.398438 -0.863281 7.039062 -0.554688 6.5625 -0.328125 C 6.09375 -0.109375 5.503906 0 4.796875 0 Z M 2.78125 -1.609375 L 4.390625 -1.609375 C 4.953125 -1.609375 5.359375 -1.710938 5.609375 -1.921875 C 5.859375 -2.140625 5.984375 -2.425781 5.984375 -2.78125 C 5.984375 -3.164062 5.84375 -3.476562 5.5625 -3.71875 C 5.289062 -3.96875 4.914062 -4.09375 4.4375 -4.09375 L 2.78125 -4.09375 Z M 2.78125 -5.4375 L 4.25 -5.4375 C 4.65625 -5.4375 4.988281 -5.539062 5.25 -5.75 C 5.519531 -5.957031 5.65625 -6.25 5.65625 -6.625 C 5.65625 -6.957031 5.535156 -7.226562 5.296875 -7.4375 C 5.054688 -7.644531 4.71875 -7.75 4.28125 -7.75 L 2.78125 -7.75 Z M 2.78125 -5.4375 "/></g></g></g><g fill="#ffffff" fill-opacity="1"><g transform="translate(60.540527, 11.449077)"><g><path d="M 9.390625 -4.671875 C 9.390625 -3.648438 9.195312 -2.78125 8.8125 -2.0625 C 8.425781 -1.351562 7.90625 -0.8125 7.25 -0.4375 C 6.59375 -0.0625 5.847656 0.125 5.015625 0.125 C 4.191406 0.125 3.445312 -0.0625 2.78125 -0.4375 C 2.125 -0.8125 1.601562 -1.359375 1.21875 -2.078125 C 0.832031 -2.796875 0.640625 -3.660156 0.640625 -4.671875 C 0.640625 -5.691406 0.832031 -6.554688 1.21875 -7.265625 C 1.601562 -7.984375 2.125 -8.53125 2.78125 -8.90625 C 3.445312 -9.28125 4.191406 -9.46875 5.015625 -9.46875 C 5.847656 -9.46875 6.59375 -9.28125 7.25 -8.90625 C 7.90625 -8.53125 8.425781 -7.984375 8.8125 -7.265625 C 9.195312 -6.554688 9.390625 -5.691406 9.390625 -4.671875 Z M 7.390625 -4.671875 C 7.390625 -5.660156 7.171875 -6.414062 6.734375 -6.9375 C 6.304688 -7.457031 5.734375 -7.71875 5.015625 -7.71875 C 4.296875 -7.71875 3.722656 -7.457031 3.296875 -6.9375 C 2.867188 -6.414062 2.65625 -5.660156 2.65625 -4.671875 C 2.65625 -3.679688 2.867188 -2.925781 3.296875 -2.40625 C 3.722656 -1.882812 4.296875 -1.625 5.015625 -1.625 C 5.734375 -1.625 6.304688 -1.882812 6.734375 -2.40625 C 7.171875 -2.925781 7.390625 -3.679688 7.390625 -4.671875 Z M 7.390625 -4.671875 "/></g></g></g><g fill="#ffffff" fill-opacity="1"><g transform="translate(70.575088, 11.449077)"><g><path d="M 9.390625 -4.671875 C 9.390625 -3.648438 9.195312 -2.78125 8.8125 -2.0625 C 8.425781 -1.351562 7.90625 -0.8125 7.25 -0.4375 C 6.59375 -0.0625 5.847656 0.125 5.015625 0.125 C 4.191406 0.125 3.445312 -0.0625 2.78125 -0.4375 C 2.125 -0.8125 1.601562 -1.359375 1.21875 -2.078125 C 0.832031 -2.796875 0.640625 -3.660156 0.640625 -4.671875 C 0.640625 -5.691406 0.832031 -6.554688 1.21875 -7.265625 C 1.601562 -7.984375 2.125 -8.53125 2.78125 -8.90625 C 3.445312 -9.28125 4.191406 -9.46875 5.015625 -9.46875 C 5.847656 -9.46875 6.59375 -9.28125 7.25 -8.90625 C 7.90625 -8.53125 8.425781 -7.984375 8.8125 -7.265625 C 9.195312 -6.554688 9.390625 -5.691406 9.390625 -4.671875 Z M 7.390625 -4.671875 C 7.390625 -5.660156 7.171875 -6.414062 6.734375 -6.9375 C 6.304688 -7.457031 5.734375 -7.71875 5.015625 -7.71875 C 4.296875 -7.71875 3.722656 -7.457031 3.296875 -6.9375 C 2.867188 -6.414062 2.65625 -5.660156 2.65625 -4.671875 C 2.65625 -3.679688 2.867188 -2.925781 3.296875 -2.40625 C 3.722656 -1.882812 4.296875 -1.625 5.015625 -1.625 C 5.734375 -1.625 6.304688 -1.882812 6.734375 -2.40625 C 7.171875 -2.925781 7.390625 -3.679688 7.390625 -4.671875 Z M 7.390625 -4.671875 "/></g></g></g><g fill="#ffffff" fill-opacity="1"><g transform="translate(80.609649, 11.449077)"><g><path d="M 0.8125 0 L 0.8125 -9.34375 L 2.78125 -9.34375 L 2.78125 -5.21875 L 2.90625 -5.21875 L 6.265625 -9.34375 L 8.640625 -9.34375 L 5.171875 -5.15625 L 8.671875 0 L 6.3125 0 L 3.765625 -3.84375 L 2.78125 -2.65625 L 2.78125 0 Z M 0.8125 0 "/></g></g></g><g fill="#ffffff" fill-opacity="1"><g transform="translate(89.45939, 11.449077)"><g/></g></g><g fill="#ffffff" fill-opacity="1"><g transform="translate(92.435132, 11.449077)"><g><path d="M 0.265625 -9.34375 L 2.484375 -9.34375 L 4.609375 -5.3125 L 4.703125 -5.3125 L 6.828125 -9.34375 L 9.046875 -9.34375 L 5.625 -3.296875 L 5.625 0 L 3.671875 0 L 3.671875 -3.296875 Z M 0.265625 -9.34375 "/></g></g></g><g fill="#ffffff" fill-opacity="1"><g transform="translate(101.731459, 11.449077)"><g><path d="M 9.390625 -4.671875 C 9.390625 -3.648438 9.195312 -2.78125 8.8125 -2.0625 C 8.425781 -1.351562 7.90625 -0.8125 7.25 -0.4375 C 6.59375 -0.0625 5.847656 0.125 5.015625 0.125 C 4.191406 0.125 3.445312 -0.0625 2.78125 -0.4375 C 2.125 -0.8125 1.601562 -1.359375 1.21875 -2.078125 C 0.832031 -2.796875 0.640625 -3.660156 0.640625 -4.671875 C 0.640625 -5.691406 0.832031 -6.554688 1.21875 -7.265625 C 1.601562 -7.984375 2.125 -8.53125 2.78125 -8.90625 C 3.445312 -9.28125 4.191406 -9.46875 5.015625 -9.46875 C 5.847656 -9.46875 6.59375 -9.28125 7.25 -8.90625 C 7.90625 -8.53125 8.425781 -7.984375 8.8125 -7.265625 C 9.195312 -6.554688 9.390625 -5.691406 9.390625 -4.671875 Z M 7.390625 -4.671875 C 7.390625 -5.660156 7.171875 -6.414062 6.734375 -6.9375 C 6.304688 -7.457031 5.734375 -7.71875 5.015625 -7.71875 C 4.296875 -7.71875 3.722656 -7.457031 3.296875 -6.9375 C 2.867188 -6.414062 2.65625 -5.660156 2.65625 -4.671875 C 2.65625 -3.679688 2.867188 -2.925781 3.296875 -2.40625 C 3.722656 -1.882812 4.296875 -1.625 5.015625 -1.625 C 5.734375 -1.625 6.304688 -1.882812 6.734375 -2.40625 C 7.171875 -2.925781 7.390625 -3.679688 7.390625 -4.671875 Z M 7.390625 -4.671875 "/></g></g></g><g fill="#ffffff" fill-opacity="1"><g transform="translate(111.766019, 11.449077)"><g><path d="M 6.59375 -9.34375 L 8.5625 -9.34375 L 8.5625 -3.171875 C 8.5625 -2.460938 8.394531 -1.863281 8.0625 -1.375 C 7.726562 -0.882812 7.269531 -0.507812 6.6875 -0.25 C 6.101562 0 5.4375 0.125 4.6875 0.125 C 3.925781 0.125 3.253906 0 2.671875 -0.25 C 2.085938 -0.507812 1.628906 -0.882812 1.296875 -1.375 C 0.972656 -1.863281 0.8125 -2.460938 0.8125 -3.171875 L 0.8125 -9.34375 L 2.78125 -9.34375 L 2.78125 -3.234375 C 2.78125 -2.734375 2.960938 -2.335938 3.328125 -2.046875 C 3.691406 -1.765625 4.144531 -1.625 4.6875 -1.625 C 5.238281 -1.625 5.691406 -1.765625 6.046875 -2.046875 C 6.410156 -2.335938 6.59375 -2.734375 6.59375 -3.234375 Z M 6.59375 -9.34375 "/></g></g></g><g fill="#ffffff" fill-opacity="1"><g transform="translate(121.126144, 11.449077)"><g><path d="M 0.8125 0 L 0.8125 -9.34375 L 4.5 -9.34375 C 5.5625 -9.34375 6.382812 -9.066406 6.96875 -8.515625 C 7.550781 -7.960938 7.84375 -7.222656 7.84375 -6.296875 C 7.84375 -5.648438 7.695312 -5.097656 7.40625 -4.640625 C 7.125 -4.191406 6.71875 -3.851562 6.1875 -3.625 L 8.171875 0 L 6 0 L 4.234375 -3.3125 L 2.78125 -3.3125 L 2.78125 0 Z M 2.78125 -4.90625 L 4.125 -4.90625 C 5.25 -4.90625 5.8125 -5.367188 5.8125 -6.296875 C 5.8125 -7.242188 5.25 -7.71875 4.125 -7.71875 L 2.78125 -7.71875 Z M 2.78125 -4.90625 "/></g></g></g></svg>